<?xml version="1.0" encoding="UTF-8" standalone="no"?>
<svg
   xmlns:dc="http://purl.org/dc/elements/1.1/"
   xmlns:cc="http://creativecommons.org/ns#"
   xmlns:rdf="http://www.w3.org/1999/02/22-rdf-syntax-ns#"
   xmlns:svg="http://www.w3.org/2000/svg"
   xmlns="http://www.w3.org/2000/svg"
   xmlns:sodipodi="http://sodipodi.sourceforge.net/DTD/sodipodi-0.dtd"
   xmlns:inkscape="http://www.inkscape.org/namespaces/inkscape"
   version="1.0"
   width="23.537333mm"
   height="23.537333mm"
   id="svg110"
   sodipodi:docname="embryo-grant-logo.svg"
   inkscape:version="0.92.3 (unknown)">
  <metadata
     id="metadata114">
    <rdf:RDF>
      <cc:Work
         rdf:about="">
        <dc:format>image/svg+xml</dc:format>
        <dc:type
           rdf:resource="http://purl.org/dc/dcmitype/StillImage" />
        <dc:title></dc:title>
      </cc:Work>
    </rdf:RDF>
  </metadata>
  <sodipodi:namedview
     pagecolor="#ffffff"
     bordercolor="#666666"
     borderopacity="1"
     objecttolerance="10"
     gridtolerance="10"
     guidetolerance="10"
     inkscape:pageopacity="0"
     inkscape:pageshadow="2"
     inkscape:window-width="1920"
     inkscape:window-height="1056"
     id="namedview112"
     showgrid="false"
     fit-margin-top="0"
     fit-margin-left="0"
     fit-margin-right="0"
     fit-margin-bottom="0"
     inkscape:zoom="4.3567891"
     inkscape:cx="103.73706"
     inkscape:cy="-13.5455"
     inkscape:window-x="0"
     inkscape:window-y="24"
     inkscape:window-maximized="1"
     inkscape:current-layer="svg110" />
  <defs
     id="defs84">
    <clipPath
       clipPathUnits="userSpaceOnUse"
       id="clipWmfPath1">
      <path
         d="M -4800,-4800 H 4800 V 4800 H -4800 Z"
         id="path80"
         inkscape:connector-curvature="0" />
    </clipPath>
    <pattern
       id="WMFhbasepattern"
       patternUnits="userSpaceOnUse"
       width="6"
       height="6"
       x="0"
       y="0" />
  </defs>
  <text
     xml:space="preserve"
     style="font-style:normal;font-variant:normal;font-weight:400;font-size:12px;line-height:125%;font-family:Arial;text-align:start;letter-spacing:0px;word-spacing:0px;text-anchor:start;fill:#000000;fill-opacity:1;stroke:none"
     x="820.16003"
     y="19.039999"
     id="text92"><tspan
       sodipodi:role="line"
       x="820.16003"
       y="19.039999"
       id="tspan90"><tspan
         dx="0"
         dy="0"
         style="font-style:normal;font-variant:normal;font-weight:400;font-size:12px;font-family:Arial;fill:#ffffff"
         id="tspan88">1</tspan></tspan></text>
  <path
     style="fill:#44be9b;fill-opacity:1;fill-rule:evenodd;stroke:none"
     d="m 0,44.48 v -2.4 L 0.16,39.84 0.48,37.6 0.8,35.52 1.28,33.28 1.92,31.2 2.56,29.12 3.36,27.04 4.32,25.12 5.28,23.2 6.4,21.28 7.52,19.52 8.8,17.76 l 1.28,-1.6 1.44,-1.6 1.44,-1.6 1.6,-1.44 1.6,-1.44 L 17.76,8.8 19.52,7.52 21.28,6.4 23.2,5.28 25.12,4.32 27.04,3.36 29.12,2.56 31.2,1.92 33.28,1.28 35.52,0.8 37.6,0.48 39.84,0.16 42.08,0 h 2.4 2.24 l 2.24,0.16 2.24,0.32 2.24,0.32 2.08,0.48 2.08,0.64 2.08,0.64 2.08,0.8 1.92,0.96 1.92,0.96 1.92,1.12 1.76,1.12 1.76,1.28 1.6,1.28 1.6,1.44 1.6,1.44 1.44,1.6 1.44,1.6 1.28,1.6 1.28,1.76 1.12,1.76 1.12,1.92 0.96,1.92 0.96,1.92 0.8,2.08 0.64,2.08 0.64,2.08 0.48,2.24 0.32,2.08 0.32,2.24 0.16,2.24 0.16,2.4 -0.16,2.24 -0.16,2.24 -0.32,2.24 -0.32,2.24 -0.48,2.08 -0.64,2.08 -0.64,2.08 -0.8,2.08 -0.96,1.92 -0.96,1.92 -1.12,1.92 -1.12,1.76 -1.28,1.76 -1.28,1.6 -1.44,1.6 -1.44,1.6 -1.6,1.44 -1.6,1.44 -1.6,1.28 -1.76,1.28 -1.76,1.12 -1.92,1.12 -1.92,0.96 -1.92,0.96 -2.08,0.8 -2.08,0.64 -2.08,0.64 L 53.44,88 51.2,88.32 48.96,88.64 46.72,88.8 44.48,88.96 42.08,88.8 39.84,88.64 37.6,88.32 35.52,88 33.28,87.52 31.2,86.88 29.12,86.24 27.04,85.44 25.12,84.48 23.2,83.52 21.28,82.4 19.52,81.28 17.76,80 l -1.6,-1.28 -1.6,-1.44 -1.6,-1.44 -1.44,-1.6 -1.44,-1.6 L 8.8,71.04 7.52,69.28 6.4,67.52 5.28,65.6 4.32,63.68 3.36,61.76 2.56,59.68 1.92,57.6 1.28,55.52 0.8,53.44 0.48,51.2 0.16,48.96 0,46.72 Z"
     id="path94"
     inkscape:connector-curvature="0" />
  <path
     style="fill:#f5f5f5;fill-opacity:1;fill-rule:evenodd;stroke:none"
     d="m 13.12,37.44 v -0.96 -0.8 l 0.16,-0.8 0.16,-0.96 0.16,-0.8 0.16,-0.8 0.64,-1.6 0.8,-1.6 0.8,-1.44 0.96,-1.28 1.12,-1.28 1.28,-1.12 1.28,-0.96 1.44,-0.8 1.6,-0.8 1.6,-0.64 0.8,-0.16 0.8,-0.16 0.8,-0.16 0.96,-0.16 h 0.8 0.96 0.96 0.8 l 0.96,0.16 0.8,0.16 0.8,0.16 0.8,0.16 1.6,0.64 1.6,0.8 1.44,0.8 1.28,0.96 1.28,1.12 1.12,1.28 0.96,1.28 0.8,1.44 0.8,1.6 0.64,1.6 0.16,0.8 0.16,0.8 0.16,0.8 0.16,0.96 v 0.8 l 0.16,0.96 -0.16,0.96 v 0.8 l -0.16,0.96 -0.16,0.8 -0.16,0.8 -0.16,0.8 -0.64,1.6 -0.8,1.6 -0.8,1.44 -0.96,1.28 -1.12,1.28 -1.28,1.12 -1.28,0.96 -1.44,0.8 -1.6,0.8 -1.6,0.64 -0.8,0.16 -0.8,0.16 -0.8,0.16 -0.96,0.16 h -0.8 l -0.96,0.16 -0.96,-0.16 h -0.8 l -0.8,-0.16 -0.96,-0.16 -0.8,-0.16 -0.8,-0.16 -1.6,-0.64 -1.6,-0.8 -1.44,-0.8 -1.28,-0.96 -1.28,-1.12 -1.12,-1.28 -0.96,-1.28 -0.8,-1.44 -0.8,-1.6 -0.64,-1.6 -0.16,-0.8 -0.16,-0.8 -0.16,-0.8 -0.16,-0.96 v -0.8 z"
     id="path96"
     inkscape:connector-curvature="0" />
</svg>
