<?xml version="1.0" encoding="utf-8"?>
<!-- Generator: Adobe Illustrator 18.1.1, SVG Export Plug-In . SVG Version: 6.00 Build 0)  -->
<svg version="1.1" id="Camada_1" xmlns="http://www.w3.org/2000/svg" xmlns:xlink="http://www.w3.org/1999/xlink" x="0px" y="0px"
	 viewBox="0 0 261.8 70.4" enable-background="new 0 0 261.8 70.4" xml:space="preserve">
<g>
	<g>
		<g>
			<g>
				<g>
					<path fill="#FFFFFF" d="M114,3.3l-2.9,5.5C109.5,8,106.3,6,103.8,6c-2.3,0-3.5,1.1-3.5,2.6c0.2,2.2,1.7,3.5,6,5.3
						c5.4,2.3,8,4.7,8,9.8c0,6.2-4.6,11.1-12,11.1c-5.2,0-9.6-2.2-12-3.6l2.7-5.9c1,0.7,5.5,3.5,8.2,3.5c2.8,0,4.1-1.4,4.1-3.8
						s-1.8-3.4-4.7-4.6c-5.8-2.4-9.3-5.2-9.3-10.6c0-6,5.3-9.8,11.3-9.8C107.5,0,111.7,1.7,114,3.3z"/>
					<path fill="#FFFFFF" d="M148.7,17.2c0,10.5-5.1,17.6-15.9,17.6c-10.6,0-15.3-6.2-15.3-16.9c0-10.5,5.1-17.9,15.9-17.9
						C144.1,0,148.7,6.6,148.7,17.2z M126.5,17.4c0,6.8,1.5,11.6,7,11.6c4.3,0,6.2-4.1,6.2-11.2c0-6.8-1.5-11.8-7-11.8
						C128.4,5.9,126.5,10.2,126.5,17.4z"/>
					<path fill="#FFFFFF" d="M153.7,0.5h21.7v6h-13.4v7.8h11.2l-1,6h-10.2v14.3h-8.3V0.5z"/>
					<path fill="#FFFFFF" d="M202.3,0.5l-1.1,6.1h-7.9v28h-8.3v-28H177V0.5H202.3z"/>
					<path fill="#FFFFFF" d="M205.5,0.5h8.3v34.1h-8.3V0.5z"/>
					<path fill="#FFFFFF" d="M240.2,0.5h8.3v34.1h-7.1l-9.7-14.7c-0.9-1.3-3-4.9-3.9-6.3c0.2,2.1,0.5,6,0.5,8l0.1,13.1h-8.3V0.5h6.8
						l9.8,14.6c1.2,1.8,3.1,5,4.1,6.5c-0.1-2.1-0.4-6-0.4-8.1L240.2,0.5z"/>
				</g>
				<g>
					<path fill="#FFFFFF" d="M105.4,49.3l-1.5,3.4c0,0-2.9-1.5-5.2-1.5c-1.3,0-2.5,0.7-2.5,1.9c0,1.7,1.1,2.9,3.7,3.9
						c3.7,1.4,5.9,3,5.9,6.8c0,3.3-2.8,6.6-7.7,6.6c-3.9,0-7.9-2.2-7.8-2.1l1.6-3.7c0,0,3.5,2.1,5.8,2.1c2.1,0,3-0.9,3-2.2
						c0-1.5-1.1-2.9-3.3-3.7c-4.5-1.7-6.3-3.7-6.3-7.1c0-3.3,3.2-6.2,7.4-6.2C102.1,47.6,105.4,49.3,105.4,49.3z"/>
					<path fill="#FFFFFF" d="M115.6,41.3c0,1.8-1.1,3.1-3,3.1c-1.9,0-2.9-1.3-2.9-2.9c0-1.8,1.1-3.1,3.1-3.1
						C114.5,38.3,115.6,39.6,115.6,41.3z M110.1,65.2V48.1h5v16.7c0,1.3,0.4,1.7,1.2,1.7c0.4,0,1.1-0.1,1.1-0.1l0.5,3.2
						c0,0-1.1,0.6-3.1,0.6C111.8,70.2,110.1,68.1,110.1,65.2z"/>
					<path fill="#FFFFFF" d="M134.8,49.3l-1.5,3.4c0,0-2.9-1.5-5.2-1.5c-1.3,0-2.5,0.7-2.5,1.9c0,1.7,1.1,2.9,3.7,3.9
						c3.7,1.4,5.9,3,5.9,6.8c0,3.3-2.8,6.6-7.7,6.6c-3.9,0-7.9-2.2-7.8-2.1l1.6-3.7c0,0,3.5,2.1,5.8,2.1c2.1,0,3-0.9,3-2.2
						c0-1.5-1.1-2.9-3.3-3.7c-4.5-1.7-6.3-3.7-6.3-7.1c0-3.3,3.2-6.2,7.4-6.2C131.5,47.6,134.8,49.3,134.8,49.3z"/>
					<path fill="#FFFFFF" d="M137.2,48.1h4l0.9-5.1l4.1-0.9v6.1h5.4l-0.6,3.6h-4.8v13c0,1.5,1,1.8,2,1.8c1.7,0,3.4-0.6,3.4-0.6
						l0.8,3.3c0,0-2.3,1-5.6,1c-3.3,0-5.6-1.3-5.6-4.9V51.7h-4V48.1z"/>
					<path fill="#FFFFFF" d="M164.2,47.6c5.2,0,7.3,2.7,7.3,6.2c0,4.2-4.9,7.8-12.6,7.9c0.3,2.7,1.4,5,4.9,5c2.6,0,6.2-1.5,6.2-1.5
						l1.3,3.1c0,0-3.8,2-8.3,2c-6.8,0-9.5-4.3-9.5-10.7C153.6,51.7,158.2,47.6,164.2,47.6z M158.7,58.6c5.6-0.2,7.7-2.7,7.7-4.8
						c0-1.7-1.1-2.8-2.7-2.8C159.9,51,158.8,55,158.7,58.6z"/>
					<path fill="#FFFFFF" d="M200.8,70V55.7c0-2.5-0.7-4-2.6-4c-2.2,0-4.8,2.6-4.8,6.6V70h-5V55.7c0-2.5-0.7-4-2.6-4
						c-2.4,0-4.8,2.8-4.8,7.4V70h-5V58.9c0-7-2.2-9.4-2.2-9.4l4-1.6c0,0,1.6,1.6,2.2,4.8c1.5-3.5,4.4-5,7.3-5c3,0,4.6,1.7,5.4,4.1
						c1.6-2.9,4.3-4.1,7-4.1c4.6,0,6,3,6,7.6V70H200.8z"/>
					<path fill="#FFFFFF" d="M229,59.4c0,7,2.1,9.4,2.1,9.4l-3.9,1.6c0,0-2-1.8-2.2-5.4c-1,3.5-3.1,5.3-6.9,5.3
						c-5.5,0-8.1-4.3-8.1-10.9c0-6.7,4.3-11.6,10.5-11.6c3.5,0,8.1,1.2,8.5,1.3V59.4z M224,58.1v-6.3c-0.6-0.2-2-0.5-2.9-0.5
						c-4.4,0-5.7,3.2-5.7,7.7c0,4.1,0.3,7.8,3.5,7.8C221.8,66.7,224,62.4,224,58.1z"/>
					<path fill="#FFFFFF" d="M248.2,49.3l-1.5,3.4c0,0-2.9-1.5-5.2-1.5c-1.3,0-2.5,0.7-2.5,1.9c0,1.7,1.1,2.9,3.7,3.9
						c3.7,1.4,5.9,3,5.9,6.8c0,3.3-2.8,6.6-7.7,6.6c-3.9,0-7.9-2.2-7.8-2.1l1.6-3.7c0,0,3.5,2.1,5.8,2.1c2.1,0,3-0.9,3-2.2
						c0-1.5-1.1-2.9-3.3-3.7c-4.5-1.7-6.3-3.7-6.3-7.1c0-3.3,3.2-6.2,7.4-6.2C244.8,47.6,248.2,49.3,248.2,49.3z"/>
				</g>
			</g>
			<linearGradient id="SVGID_1_" gradientUnits="userSpaceOnUse" x1="0" y1="34.8341" x2="74.9673" y2="34.8341">
				<stop  offset="0.203" style="stop-color:#FFFFFF"/>
				<stop  offset="0.4671" style="stop-color:#FFFFFF"/>
				<stop  offset="0.6535" style="stop-color:#FFFFFF"/>
			</linearGradient>
			<path fill="url(#SVGID_1_)" d="M62.4,51.2c-2-0.1-3.7-0.6-5.1-1.5c-1-0.6-1.6-1.5-2.4-2.3c-1.6-1.7-4.4-2.2-7.2-2.3
				c-2.7-0.1-5.3,0.6-7.3,1.8c-1,0.6-1.8,1.2-2.5,2c-1.4,1.5-2.3,3.4-2.3,5.5c0,2,0.4,4,2,5.3c0.8,0.6,1.6,1.2,2.2,1.9
				c0.8,1,1.2,2.2,1.1,3.5c-0.2,3.2-3.6,5.3-7.6,4.9c-3.9-0.4-7.1-3.1-7.3-6.2c-0.1-1.4,0.5-2.7,1.5-3.6c0.2-0.2,0.5-0.4,0.8-0.6
				c1.5-1.3,2.4-3.2,2.3-5.4c0-2.3-1.1-4.5-2.8-6.2c-0.3-0.3-0.6-0.5-0.9-0.8c-2-1.7-4.6-2.7-7.3-2.8c-2.1-0.1-4.2,0.1-5.3,1.3
				c-0.8,0.9-1.4,2-2.5,2.5c-0.9,0.5-2.1,0.7-3.3,0.7c-3.8-0.2-7.5-3.3-8.3-7.1c-0.8-4,1.7-7.5,5.9-7.5c1.4,0,2.8,0.4,4,1
				c1.2,0.7,2.1,1.8,3.2,2.7c1.5,1.4,3.8,1.7,6,1.8c6,0.1,11-4.8,10.9-11.4c-0.1-3-0.9-5.9-2.9-7.9c-0.6-0.6-1.3-1.1-1.8-1.8
				c-1.3-1.7-2.1-3.8-2.2-6.2c-0.3-6.2,4.1-12.1,10-12.7C39.4-0.9,44.3,4.3,43.9,11c-0.1,2.2-0.8,4.3-1.9,6
				c-0.9,1.4-2.3,2.4-3.4,3.6c-2,1.9-2.5,4.9-2.6,7.7c0,2.9,0.9,5.4,2.5,7.4c0.6,0.8,1.4,1.4,2.2,2.1c2,1.5,4.6,2.4,7.5,2.4
				c3,0,6.1-0.5,8.3-2.3c0.9-0.7,1.8-1.6,2.8-2.1c1.9-1.1,4.2-1.7,6.5-1.7c6.2,0,10.2,4.3,8.9,9.3C73.4,48.1,67.9,51.5,62.4,51.2z"
				/>
		</g>
		<path fill="#FFFFFF" d="M257.4-0.3c0.7,0,1.5,0.2,2.2,0.6c0.7,0.4,1.2,0.9,1.6,1.6c0.4,0.7,0.6,1.4,0.6,2.2c0,0.8-0.2,1.5-0.6,2.2
			c-0.4,0.7-0.9,1.2-1.6,1.6c-0.7,0.4-1.4,0.6-2.2,0.6c-0.8,0-1.5-0.2-2.2-0.6c-0.7-0.4-1.2-0.9-1.6-1.6c-0.4-0.7-0.6-1.4-0.6-2.2
			c0-0.8,0.2-1.5,0.6-2.2c0.4-0.7,0.9-1.2,1.6-1.6C256-0.1,256.7-0.3,257.4-0.3z M257.4,0.4c-0.6,0-1.2,0.2-1.8,0.5
			c-0.6,0.3-1,0.8-1.4,1.4c-0.3,0.6-0.5,1.2-0.5,1.8c0,0.6,0.2,1.2,0.5,1.8s0.8,1,1.4,1.4c0.6,0.3,1.2,0.5,1.8,0.5
			c0.6,0,1.2-0.2,1.8-0.5c0.6-0.3,1-0.8,1.4-1.4c0.3-0.6,0.5-1.2,0.5-1.8c0-0.6-0.2-1.2-0.5-1.8c-0.3-0.6-0.8-1-1.4-1.4
			C258.7,0.6,258.1,0.4,257.4,0.4z M255.5,6.5V1.8h1.6c0.6,0,1,0,1.2,0.1c0.2,0.1,0.4,0.2,0.6,0.5c0.1,0.2,0.2,0.4,0.2,0.7
			c0,0.3-0.1,0.6-0.4,0.9c-0.2,0.3-0.6,0.4-1,0.4c0.2,0.1,0.3,0.2,0.4,0.2c0.2,0.2,0.4,0.5,0.7,0.9l0.6,0.9h-0.9l-0.4-0.7
			c-0.3-0.6-0.6-0.9-0.8-1.1c-0.1-0.1-0.3-0.2-0.6-0.2h-0.4v2H255.5z M256.3,3.8h0.9c0.4,0,0.7-0.1,0.9-0.2c0.2-0.1,0.2-0.3,0.2-0.5
			c0-0.1,0-0.3-0.1-0.4c-0.1-0.1-0.2-0.2-0.3-0.2c-0.1-0.1-0.4-0.1-0.8-0.1h-0.9V3.8z"/>
	</g>
</g>
</svg>
