<?xml version="1.0" encoding="utf-8"?>
<!-- Generator: Adobe Illustrator 18.0.0, SVG Export Plug-In . SVG Version: 6.00 Build 0)  -->
<!DOCTYPE svg PUBLIC "-//W3C//DTD SVG 1.1//EN" "http://www.w3.org/Graphics/SVG/1.1/DTD/svg11.dtd">
<svg version="1.1" id="Layer_1" xmlns="http://www.w3.org/2000/svg" xmlns:xlink="http://www.w3.org/1999/xlink" x="0px" y="0px"
	 viewBox="0 9 698 178.9" enable-background="new 0 9 698 178.9" xml:space="preserve">
<g id="Layer_1_1_" display="none">
	<g display="inline">
		<g>
			<g>
				<path fill="#00ADEE" d="M278.8,52.1h73.5v24.4h-24.7v69h-24.5v-69h-24.2L278.8,52.1L278.8,52.1z"/>
			</g>
			<g>
				<path fill="#00ADEE" d="M409.1,145.5l-14.4-24.7h-15.2v24.7H355V52.3h39.3c18.9,0,34.3,15.4,34.3,34.3c0,9.9-4.4,18.9-11.1,25.1
					l19.8,33.8L409.1,145.5L409.1,145.5z M379.5,99.6h15.2c7.5,0,13.4-5.8,13.4-13.3c0-7.5-6-13.4-13.4-13.4h-15.2V99.6z"/>
			</g>
			<g>
				<path fill="#00ADEE" d="M435,52.3h24.5v93.2H435V52.3z"/>
			</g>
			<g>
				<path fill="#00ADEE" d="M464.1,52.3h39.3c18.9,0,34.3,15.4,34.3,34.3c0,18.8-15.3,34.2-33.8,34.2h-15.3v24.7h-24.5L464.1,52.3
					L464.1,52.3z M488.6,99.6h15.2c7.5,0,13.4-5.8,13.4-13.3c0-7.5-6-13.4-13.4-13.4h-15.2V99.6z"/>
			</g>
			<g>
				<path fill="#00ADEE" d="M587.2,147h-47.5V50.8h42.6c15.8,0,29.1,13.4,29.1,29.2c0,5.8-1.9,11.6-5.4,16.5
					c6.3,5.6,10,13.6,10,21.6C616,133.8,602.8,147,587.2,147z M542.7,144h44.5c14,0,25.8-11.8,25.8-25.8c0-7.6-3.7-15.2-10-20.2
					l-1.2-0.9l0.9-1.2c3.6-4.6,5.6-10.3,5.6-15.9c0-14.2-11.9-26.2-26.1-26.2h-39.6L542.7,144L542.7,144z M582.1,126.8h-17.9v-19.2
					h17.9c5.2,0,9.6,4.4,9.6,9.6C591.6,122.5,587.3,126.8,582.1,126.8z M567.1,123.8h14.9c3.6,0,6.6-3,6.6-6.6
					c0-3.5-3.1-6.6-6.6-6.6h-14.9V123.8z M577.5,90.2h-13.3V71h13.3c5.3,0,9.6,4.3,9.6,9.6S582.7,90.2,577.5,90.2z M567.1,87.2h10.3
					c3.6,0,6.6-3,6.6-6.6c0-3.6-3-6.6-6.6-6.6h-10.3V87.2z"/>
			</g>
			<g>
				<path fill="#00ADEE" d="M662.8,147h-27.2v-35.4l-35.2-60.8h31.7l17,29.6l17.2-29.6H698l-35.2,60.8V147z M638.6,144h21.2v-33.2
					l0.2-0.3l32.8-56.7h-24.8l-18.9,32.6l-18.8-32.6h-24.7l33,57L638.6,144L638.6,144z"/>
			</g>
		</g>
		<g>
			<g>
				<path fill="#00ADEE" d="M173,39.2v62.5v4.8h4.8h28.4v51.8h-61.6h-4.8v4.8V192H88.8v-62.5v-4.8H84H55.6V72.9h61.6h4.8v-4.8V39.2
					L173,39.2 M177.8,34.4h-60.6v33.7H50.8l0,0v61.4H84v67.4l0,0h60.6v-33.7H211l0,0v-61.4h-33.2L177.8,34.4L177.8,34.4L177.8,34.4z
					"/>
			</g>
			<g>
				<path fill="#EC297B" d="M195.9,5.8v62.4V73h4.8h28.6v51.7h-62h-4.8v4.8v28.8h-51.3V95.9v-4.8h-4.8H77.7V39.4h62h4.8v-4.8V5.8
					H195.9 M200.7,1h-61v33.6H72.9l0,0v61.3h33.4v67.3l0,0h61v-33.6h66.9l0,0V68.2h-33.4V1L200.7,1L200.7,1z"/>
			</g>
		</g>
	</g>
</g>
<g id="Layer_2" display="none">
	<g display="inline">
		<g>
			<g>
				<path fill="#00ADEE" d="M151,172.2H30.4V48.5h47.8V1.1h120.6v123.7H151V172.2z M35.7,166.9h110v-47.4h47.8V6.4h-110v47.4H35.7
					V166.9z"/>
			</g>
			<g>
				<path fill="#EC297B" d="M186,195.9H64.6V72.2h48.1V24.8h121.3v123.7H186L186,195.9L186,195.9z M69.9,190.6h110.7v-47.4h48.1
					V30.1H118.1v47.4H69.9V190.6z"/>
			</g>
		</g>
		<g>
			<g>
				<path fill="#00ADEE" d="M278.7,51.7h73.5v24.4h-24.7v69H303v-69h-24.2V51.7z"/>
			</g>
			<g>
				<path fill="#00ADEE" d="M409,145.1l-14.4-24.7h-15.2v24.7H355V51.9h39.3c18.9,0,34.3,15.4,34.3,34.3c0,9.9-4.4,18.9-11.1,25.1
					l19.8,33.8L409,145.1L409,145.1z M379.5,99.2h15.2c7.5,0,13.4-5.8,13.4-13.3s-6-13.4-13.4-13.4h-15.2V99.2z"/>
			</g>
			<g>
				<path fill="#00ADEE" d="M435,51.9h24.5v93.3H435V51.9z"/>
			</g>
			<g>
				<path fill="#00ADEE" d="M464.1,51.9h39.3c18.9,0,34.3,15.4,34.3,34.3c0,18.8-15.3,34.2-33.8,34.2h-15.3v24.7h-24.5V51.9z
					 M488.6,99.2h15.2c7.5,0,13.4-5.8,13.4-13.3s-6-13.4-13.4-13.4h-15.2V99.2z"/>
			</g>
			<g>
				<path fill="#00ADEE" d="M587.2,146.6h-47.5V50.4h42.7c15.8,0,29.1,13.4,29.1,29.2c0,5.8-1.9,11.6-5.4,16.5
					c6.3,5.6,10,13.6,10,21.6C616.1,133.4,602.8,146.6,587.2,146.6z M542.7,143.6h44.5c14,0,25.9-11.8,25.9-25.9
					c0-7.6-3.7-15.2-10-20.2l-1.2-0.9l0.9-1.2c3.6-4.7,5.6-10.3,5.6-15.9c0-14.2-12-26.2-26.1-26.2h-39.7L542.7,143.6L542.7,143.6z
					 M582.1,126.5h-17.9v-19.2h17.9c5.2,0,9.6,4.4,9.6,9.6C591.7,122.2,587.4,126.5,582.1,126.5z M567.2,123.5h14.9
					c3.6,0,6.6-3,6.6-6.6c0-3.5-3.1-6.6-6.6-6.6h-14.9V123.5z M577.5,89.8h-13.3V70.6h13.3c5.3,0,9.6,4.3,9.6,9.6
					C587.1,85.5,582.8,89.8,577.5,89.8z M567.2,86.8h10.3c3.6,0,6.6-3,6.6-6.6c0-3.6-3-6.6-6.6-6.6h-10.3V86.8z"/>
			</g>
			<g>
				<path fill="#00ADEE" d="M662.9,146.6h-27.2v-35.4l-35.2-60.8h31.7l17,29.6l17.2-29.6h31.7l-35.2,60.8L662.9,146.6L662.9,146.6z
					 M638.7,143.6h21.2v-33.2l0.2-0.3l32.8-56.7h-24.8l-18.9,32.6l-18.8-32.6h-24.8l33,57L638.7,143.6L638.7,143.6z"/>
			</g>
		</g>
	</g>
</g>
<g id="Layer_3" display="none">
	<g display="inline">
		<g>
			<g>
				<g>
					<path fill="#00ADEE" d="M130.5,186.8H-0.4V58.9h51.8V10.2h130.9v127.9h-51.8L130.5,186.8L130.5,186.8z M5.6,180.8h118.9v-48.7
						h51.8V16.2H57.4v48.7H5.6V180.8z"/>
				</g>
			</g>
			<g>
				<g>
					<path fill="#EC297B" d="M182.3,186.8H51.4V58.9h51.8V10.2h130.9v127.9h-51.8V186.8z M57.4,180.8h118.9v-48.7h51.8V16.2H109.2
						v48.7H57.4V180.8z"/>
				</g>
			</g>
		</g>
		<g>
			<g>
				<path fill="#00ADEE" d="M278.4,51.7H352v24.4h-24.8v69.1h-24.5V76.1h-24.3V51.7z"/>
			</g>
			<g>
				<path fill="#00ADEE" d="M408.9,145.3l-14.4-24.8h-15.2v24.8h-24.5V51.9h39.4c18.9,0,34.4,15.4,34.4,34.4
					c0,10-4.4,18.9-11.1,25.2l19.8,33.9L408.9,145.3L408.9,145.3z M379.3,99.3h15.2c7.5,0,13.4-5.9,13.4-13.3s-6-13.4-13.4-13.4
					h-15.2V99.3z"/>
			</g>
			<g>
				<path fill="#00ADEE" d="M434.9,51.9h24.5v93.4h-24.5V51.9z"/>
			</g>
			<g>
				<path fill="#00ADEE" d="M464.1,51.9h39.4c18.9,0,34.4,15.4,34.4,34.4c0,18.8-15.3,34.2-33.9,34.2h-15.3v24.8h-24.5L464.1,51.9
					L464.1,51.9z M488.6,99.3h15.2c7.5,0,13.4-5.9,13.4-13.3s-6-13.4-13.4-13.4h-15.2V99.3z"/>
			</g>
			<g>
				<path fill="#00ADEE" d="M587.3,146.8h-47.6V50.4h42.7c15.8,0,29.1,13.4,29.1,29.3c0,5.8-1.9,11.6-5.4,16.6
					c6.3,5.6,10,13.6,10,21.7C616.2,133.5,603,146.8,587.3,146.8z M542.8,143.8h44.6c14,0,25.9-11.9,25.9-25.9
					c0-7.6-3.7-15.2-10-20.3l-1.2-0.9l0.9-1.2c3.6-4.7,5.7-10.3,5.7-15.9c0-14.2-12-26.3-26.1-26.3h-39.7L542.8,143.8L542.8,143.8z
					 M582.2,126.6h-17.9v-19.2h17.9c5.2,0,9.6,4.4,9.6,9.6C591.8,122.3,587.5,126.6,582.2,126.6z M567.3,123.6h14.9
					c3.6,0,6.6-3,6.6-6.6c0-3.5-3.1-6.6-6.6-6.6h-14.9V123.6z M577.6,89.9h-13.3V70.7h13.3c5.3,0,9.6,4.3,9.6,9.6
					S582.9,89.9,577.6,89.9z M567.3,86.8h10.3c3.6,0,6.6-3,6.6-6.6s-3-6.6-6.6-6.6h-10.3V86.8z"/>
			</g>
			<g>
				<path fill="#00ADEE" d="M663.2,146.8h-27.3v-35.5l-35.2-60.9h31.7L649.5,80l17.2-29.6h31.7l-35.2,60.9L663.2,146.8L663.2,146.8z
					 M638.9,143.8h21.3v-33.3l33-57.1h-24.8L649.5,86l-18.8-32.6h-24.8l33,57.1L638.9,143.8L638.9,143.8z"/>
			</g>
		</g>
	</g>
</g>
<g id="Layer_4">
	<g>
		<g>
			<g>
				<g>
					<path fill="#FFFFFF" d="M132.1,188H-0.5V58.4h132.6L132.1,188L132.1,188z M5.5,181.9h120.6V64.5H5.5V181.9z"/>
				</g>
			</g>
			<g>
				<g>
					<path fill="#FFFFFF" d="M184.6,138.6H52V9h132.6L184.6,138.6L184.6,138.6z M58,132.5h120.6V15.1H58V132.5z"/>
				</g>
			</g>
			<g>
				<g>
					<g>
						
							<rect x="24.8" y="-0.1" transform="matrix(-0.6853 -0.7283 0.7283 -0.6853 20.7074 80.904)" fill="#FFFFFF" width="6" height="72.1"/>
					</g>
				</g>
			</g>
			<g>
				<g>
					
						<rect x="153.3" y="-0.1" transform="matrix(-0.6853 -0.7283 0.7283 -0.6853 237.2572 174.4139)" fill="#FFFFFF" width="6" height="72.1"/>
				</g>
			</g>
			<g>
				<g>
					
						<rect x="25.8" y="124.2" transform="matrix(-0.6853 -0.7283 0.7283 -0.6853 -68.2214 291.0241)" fill="#FFFFFF" width="6" height="72.1"/>
				</g>
			</g>
			<g>
				<g>
					
						<rect x="153.3" y="125" transform="matrix(-0.6853 -0.7283 0.7283 -0.6853 146.1171 385.2912)" fill="#FFFFFF" width="6" height="72.1"/>
				</g>
			</g>
		</g>
		<g>
			<g>
				<path fill="#FFFFFF" d="M277.8,51.7h73.6v24.4h-24.8v69.2h-24.5V76.1h-24.3V51.7z"/>
			</g>
			<g>
				<path fill="#FFFFFF" d="M408.4,145.3l-14.5-24.8h-15.2v24.8h-24.5V51.8h39.4c18.9,0,34.4,15.5,34.4,34.4
					c0,10-4.4,18.9-11.1,25.2l19.8,33.9L408.4,145.3L408.4,145.3z M378.7,99.3h15.2c7.5,0,13.5-5.9,13.5-13.3s-6-13.5-13.5-13.5
					h-15.2V99.3z"/>
			</g>
			<g>
				<path fill="#FFFFFF" d="M434.4,51.8H459v93.4h-24.5V51.8z"/>
			</g>
			<g>
				<path fill="#FFFFFF" d="M463.6,51.8H503c18.9,0,34.4,15.5,34.4,34.4c0,18.8-15.3,34.3-33.9,34.3h-15.3v24.8h-24.5L463.6,51.8
					L463.6,51.8z M488.1,99.3h15.2c7.5,0,13.5-5.9,13.5-13.3s-6-13.5-13.5-13.5h-15.2V99.3z"/>
			</g>
			<g>
				<path fill="#FFFFFF" d="M586.9,146.8h-47.6V50.3h42.7c15.8,0,29.2,13.4,29.2,29.3c0,5.8-1.9,11.6-5.4,16.6
					c6.3,5.6,10,13.6,10,21.7C615.8,133.5,602.6,146.8,586.9,146.8z M542.3,143.8h44.6c14,0,25.9-11.9,25.9-25.9
					c0-7.6-3.7-15.2-10-20.3l-1.2-0.9l0.9-1.2c3.7-4.7,5.7-10.3,5.7-15.9c0-14.2-12-26.3-26.2-26.3h-39.7V143.8z M581.8,126.6h-18
					v-19.2h18c5.2,0,9.6,4.4,9.6,9.6C591.4,122.3,587.1,126.6,581.8,126.6z M566.9,123.6h14.9c3.6,0,6.6-3,6.6-6.6
					c0-3.5-3.1-6.6-6.6-6.6h-14.9V123.6z M577.2,89.8h-13.3V70.6h13.3c5.3,0,9.6,4.3,9.6,9.6C586.8,85.5,582.5,89.8,577.2,89.8z
					 M566.9,86.8h10.3c3.6,0,6.6-3,6.6-6.6c0-3.6-3-6.6-6.6-6.6h-10.3V86.8z"/>
			</g>
			<g>
				<path fill="#FFFFFF" d="M662.8,146.8h-27.3v-35.5l-35.2-61H632L649.1,80l17.2-29.6H698l-35.2,61V146.8z M638.5,143.8h21.3v-33.3
					l33-57.2H668L649.1,86l-18.8-32.6h-24.8l33,57.2L638.5,143.8L638.5,143.8z"/>
			</g>
		</g>
		<g>
			<g>
				<g>
					
						<rect x="77.3" y="-0.1" transform="matrix(-0.6853 -0.7283 0.7283 -0.6853 109.1091 119.0296)" fill="#FFFFFF" width="6" height="72.1"/>
				</g>
			</g>
			<g>
				<g>
					
						<rect x="204.9" y="0.7" transform="matrix(-0.6853 -0.7283 0.7283 -0.6853 323.5303 213.3225)" fill="#FFFFFF" width="6" height="72.1"/>
				</g>
			</g>
			<g>
				<g>
					
						<rect x="78.3" y="124.2" transform="matrix(-0.6853 -0.7283 0.7283 -0.6853 20.2377 329.2549)" fill="#FFFFFF" width="6" height="72.1"/>
				</g>
			</g>
			<g>
				<g>
					
						<rect x="205.8" y="125" transform="matrix(-0.6853 -0.7283 0.7283 -0.6853 234.5762 423.5223)" fill="#FFFFFF" width="6" height="72.1"/>
				</g>
			</g>
			<g>
				<g>
					<path fill="#FFFFFF" d="M184.6,188H52V58.4h132.6L184.6,188L184.6,188z M58,181.9h120.6V64.5H58V181.9z"/>
				</g>
			</g>
			<g>
				<g>
					<path fill="#FFFFFF" d="M237.1,138.6H104.5V9h132.6V138.6z M110.5,132.5h120.6V15.1H110.5L110.5,132.5L110.5,132.5z"/>
				</g>
			</g>
		</g>
	</g>
</g>
</svg>
