<?xml version="1.0" standalone="no"?>
<!DOCTYPE svg PUBLIC "-//W3C//DTD SVG 20010904//EN"
 "http://www.w3.org/TR/2001/REC-SVG-20010904/DTD/svg10.dtd">
<svg version="1.0" xmlns="http://www.w3.org/2000/svg"
 width="700.000000pt" height="700.000000pt" viewBox="0 0 700.000000 700.000000"
 preserveAspectRatio="xMidYMid meet">
<metadata>
Created by potrace 1.11, written by Peter Selinger 2001-2013
</metadata>
<g transform="translate(0.000000,700.000000) scale(0.100000,-0.100000)"
fill="#000000" stroke="none">
<path d="M3429 6996 c-2 -2 -33 -6 -69 -9 -63 -5 -379 -53 -410 -62 -8 -2 -28
-7 -45 -10 -79 -14 -96 -18 -315 -84 -363 -110 -806 -340 -1110 -578 -32 -25
-146 -118 -156 -128 -6 -5 -51 -46 -100 -90 -227 -204 -459 -473 -618 -715
-174 -265 -366 -654 -411 -830 -2 -8 -20 -65 -39 -126 -55 -170 -88 -324 -121
-557 -3 -20 -8 -54 -11 -75 -18 -121 -22 -219 -19 -502 1 -173 5 -328 8 -345
8 -42 37 -240 43 -297 6 -56 54 -258 82 -348 11 -36 37 -119 57 -185 20 -66
40 -124 45 -130 4 -5 13 -28 20 -50 17 -54 169 -357 238 -475 253 -433 625
-843 1047 -1154 74 -54 242 -166 250 -166 2 0 33 -18 67 -40 l63 -40 1800 0
1799 0 96 57 c181 107 413 275 532 385 25 24 79 72 119 108 92 81 97 87 189
189 41 47 80 89 85 95 116 126 259 318 367 495 l88 145 0 1799 0 1798 -48 82
c-203 343 -455 646 -768 923 -134 119 -136 120 -266 216 -188 139 -322 219
-572 345 -202 101 -284 133 -531 207 -66 20 -134 41 -152 47 -18 5 -40 12 -50
14 -10 2 -49 10 -88 18 -38 8 -97 18 -130 22 -32 3 -62 8 -65 10 -3 1 -32 6
-65 9 -33 4 -69 9 -80 12 -11 2 -36 7 -55 10 -38 6 -695 16 -701 10z"/>
</g>
</svg>
