<?xml version="1.0" standalone="no"?>
<!DOCTYPE svg PUBLIC "-//W3C//DTD SVG 20010904//EN"
 "http://www.w3.org/TR/2001/REC-SVG-20010904/DTD/svg10.dtd">
<svg version="1.0" xmlns="http://www.w3.org/2000/svg"
 width="1024.000000pt" height="1024.000000pt" viewBox="0 0 1024.000000 1024.000000"
 preserveAspectRatio="xMidYMid meet">
<metadata>
Created by potrace 1.11, written by Peter Selinger 2001-2013
</metadata>
<g transform="translate(0.000000,1024.000000) scale(0.100000,-0.100000)"
fill="#000000" stroke="none">
<path d="M836 10224 c-424 -84 -741 -403 -821 -827 -13 -70 -15 -573 -15
-4277 0 -3704 2 -4207 15 -4277 81 -427 401 -747 828 -828 70 -13 573 -15
4277 -15 3704 0 4207 2 4277 15 427 81 747 401 828 828 13 70 15 573 15 4277
0 3704 -2 4207 -15 4277 -81 427 -401 747 -828 828 -70 13 -571 15 -4286 14
-3512 -1 -4217 -3 -4275 -15z m6011 -1354 c230 -27 433 -52 451 -55 l32 -6 0
-3689 0 -3690 -403 0 -404 0 -44 360 c-24 198 -47 360 -50 360 -4 0 -19 -19
-34 -43 -89 -134 -239 -297 -376 -407 -237 -190 -489 -308 -777 -362 -155 -29
-512 -32 -666 -5 -385 68 -694 229 -948 495 -526 551 -775 1499 -687 2607 66
832 367 1521 844 1935 338 292 741 440 1202 440 515 0 955 -189 1361 -584 l62
-60 0 1377 c0 890 3 1377 10 1377 5 0 198 -22 427 -50z"/>
<path d="M5040 6080 c-383 -46 -683 -264 -873 -637 -173 -340 -245 -704 -254
-1289 -6 -344 4 -551 37 -786 89 -637 320 -1047 695 -1235 132 -67 290 -98
490 -97 368 2 629 107 921 370 87 78 216 223 302 338 l52 69 0 1293 0 1293
-73 88 c-105 125 -278 288 -386 362 -223 152 -444 226 -706 235 -71 3 -164 1
-205 -4z"/>
</g>
</svg>
