<?xml version="1.0" encoding="utf-8"?>
<!-- Generator: Adobe Illustrator 18.0.0, SVG Export Plug-In . SVG Version: 6.00 Build 0)  -->
<!DOCTYPE svg PUBLIC "-//W3C//DTD SVG 1.1//EN" "http://www.w3.org/Graphics/SVG/1.1/DTD/svg11.dtd">
<svg version="1.1" id="Logo" xmlns="http://www.w3.org/2000/svg" xmlns:xlink="http://www.w3.org/1999/xlink" x="0px" y="0px"
	 viewBox="0 94.9 612 602.3" enable-background="new 0 94.9 612 602.3" xml:space="preserve">
<g>
	<path fill="#FFFFFF" d="M306,149.2c80.4,0,89.9,0.4,121.7,1.8c29.4,1.3,45.3,6.2,55.9,10.4c14.1,5.5,24.1,12,34.7,22.5
		s17.1,20.6,22.5,34.7c4.1,10.6,9.1,26.5,10.4,55.9c1.4,31.8,1.8,41.2,1.8,121.7s-0.4,89.9-1.8,121.7c-1.3,29.4-6.2,45.3-10.4,55.9
		c-5.5,14.1-12,24.1-22.5,34.7s-20.6,17.1-34.7,22.5c-10.6,4.1-26.5,9.1-55.9,10.4c-31.8,1.4-41.2,1.8-121.7,1.8
		s-89.9-0.4-121.7-1.8c-29.4-1.3-45.3-6.2-55.9-10.4c-14.1-5.5-24.1-12-34.7-22.5s-17.1-20.6-22.5-34.7
		c-4.1-10.6-9.1-26.5-10.4-55.9C59.4,486,59,476.6,59,396.1s0.4-89.9,1.8-121.7c1.3-29.4,6.2-45.3,10.4-55.9
		c5.5-14.1,12-24.1,22.5-34.7s20.6-17.1,34.7-22.5c10.6-4.1,26.5-9.1,55.9-10.4C216.1,149.4,225.6,149.2,306,149.2 M306,94.9
		c-81.8,0-92,0.4-124.2,1.8c-32,1.4-53.9,6.6-73,14c-19.8,7.7-36.6,18-53.3,34.8s-27,33.6-34.8,53.3c-7.4,19.1-12.6,41-14,73.2
		C5.3,304,4.9,314.2,4.9,396s0.4,92,1.8,124.2c1.4,32,6.6,53.9,14,73.2c7.6,19.8,18,36.6,34.8,53.3s33.6,27,53.3,34.8
		c19.1,7.4,41,12.6,73.2,14s42.3,1.8,124.2,1.8s92-0.4,124.2-1.8c32-1.4,53.9-6.6,73.2-14c19.8-7.7,36.6-18,53.3-34.8
		s27-33.6,34.8-53.3c7.4-19.1,12.6-41,14-73.2c1.4-32.2,1.8-42.3,1.8-124.2s-0.4-92-1.8-124.2c-1.4-32-6.6-53.9-14-73.2
		c-7.6-19.8-18-36.6-34.8-53.3s-33.6-27-53.3-34.8c-19.1-7.4-41-12.6-73.2-14C398,95.3,387.8,94.9,306,94.9L306,94.9z"/>
	<path fill="#FFFFFF" d="M306,241.3c-85.3,0-154.7,69.2-154.7,154.7S220.7,550.7,306,550.7S460.7,481.3,460.7,396
		S391.3,241.3,306,241.3z M306,496.4c-55.5,0-100.4-44.9-100.4-100.4S250.5,295.6,306,295.6S406.4,340.5,406.4,396
		S361.5,496.4,306,496.4z"/>
	<circle fill="#FFFFFF" cx="466.8" cy="235.2" r="36.1"/>
</g>
</svg>
